# xmcd CD database file
#
# Track frame offsets:
#	150
#	23302
#	46177
#	69915
#	86050
#	111052
#	134000
#	154820
#	175607
#	199022
#
# Disc length: 2887 seconds
#
# Revision: 2
# Processed by: cddbd v1.5.1PL2 Copyright (c) Steve Scherf et al.
# Submitted via: CDex 1.60beta1-cs1
#
DISCID=760b450a
DTITLE=SION - Comes
DYEAR=1998
DGENRE=Rock
TTITLE0=通報されるくらいに
TTITLE1=２番目の夢で食ってる
TTITLE2=もう一回
TTITLE3=幼稚な杖
TTITLE4=少々インチキでかまわないから
TTITLE5=うつつをぬかしたい
TTITLE6=あったかい影を連れて
TTITLE7=火がつかない
TTITLE8=午前３時のの街角で
TTITLE9=お前がいる
EXTD=YEAR: 1998
EXTT0=
EXTT1=
EXTT2=
EXTT3=
EXTT4=
EXTT5=
EXTT6=
EXTT7=
EXTT8=
EXTT9=
PLAYORDER=
